<svg width="240" height="36" viewBox="0 0 240 36" fill="none" xmlns="http://www.w3.org/2000/svg">
<path d="M18 0.445461C8.05613 0.445461 0 8.50834 0 18.4455C0 26.4026 5.157 33.147 12.3041 35.5263C13.2075 35.6962 13.5337 35.1393 13.5337 34.6578C13.5337 34.2303 13.5236 33.0997 13.5169 31.599C8.50725 32.6835 7.452 29.1791 7.452 29.1791C6.63188 27.1046 5.44837 26.5477 5.44837 26.5477C3.81937 25.4351 5.57775 25.4587 5.57775 25.4587C7.38225 25.5813 8.33175 27.3093 8.33175 27.3093C9.93713 30.0633 12.5438 29.2668 13.5754 28.8033C13.7329 27.6435 14.202 26.8458 14.7128 26.4015C10.7168 25.9503 6.51487 24.4035 6.51487 17.5061C6.51487 15.5362 7.21237 13.932 8.3655 12.672C8.16637 12.2208 7.55663 10.3871 8.52413 7.90759C8.52413 7.90759 10.0305 7.42721 13.4741 9.75371C14.941 9.35474 16.454 9.15012 17.9741 9.14509C19.5041 9.15521 21.033 9.35546 22.4741 9.75371C25.8975 7.42721 27.4027 7.90759 27.4027 7.90759C28.3691 10.3871 27.7594 12.2197 27.5839 12.672C28.7257 13.932 29.4232 15.5373 29.4232 17.5061C29.4232 24.4192 25.2157 25.9436 21.2152 26.3835C21.8407 26.9223 22.4269 28.0305 22.4269 29.7123C22.4269 32.1198 22.4044 34.0593 22.4044 34.6455C22.4044 35.1135 22.7194 35.676 23.6464 35.4948C30.8464 33.1402 35.9977 26.3902 35.9977 18.4443C35.9977 8.50721 27.9416 0.444336 17.9978 0.444336L18 0.445461Z" fill="black"/>
<path d="M109.296 19.556H111.51V24.578C110.862 25.094 110.106 25.49 109.242 25.766C108.378 26.042 107.49 26.18 106.578 26.18C105.294 26.18 104.136 25.904 103.104 25.352C102.072 24.788 101.262 24.014 100.674 23.03C100.086 22.046 99.792 20.936 99.792 19.7C99.792 18.464 100.086 17.354 100.674 16.37C101.262 15.386 102.072 14.618 103.104 14.066C104.148 13.502 105.318 13.22 106.614 13.22C107.67 13.22 108.63 13.394 109.494 13.742C110.358 14.09 111.084 14.6 111.672 15.272L110.196 16.712C109.236 15.752 108.078 15.272 106.722 15.272C105.834 15.272 105.042 15.458 104.346 15.83C103.662 16.202 103.122 16.724 102.726 17.396C102.342 18.068 102.15 18.836 102.15 19.7C102.15 20.54 102.342 21.296 102.726 21.968C103.122 22.64 103.662 23.168 104.346 23.552C105.042 23.936 105.828 24.128 106.704 24.128C107.688 24.128 108.552 23.912 109.296 23.48V19.556ZM114.38 16.388H116.63V26H114.38V16.388ZM115.514 14.804C115.106 14.804 114.764 14.678 114.488 14.426C114.212 14.162 114.074 13.838 114.074 13.454C114.074 13.07 114.212 12.752 114.488 12.5C114.764 12.236 115.106 12.104 115.514 12.104C115.922 12.104 116.264 12.23 116.54 12.482C116.816 12.722 116.954 13.028 116.954 13.4C116.954 13.796 116.816 14.132 116.54 14.408C116.276 14.672 115.934 14.804 115.514 14.804ZM125.361 25.478C125.097 25.694 124.773 25.856 124.389 25.964C124.017 26.072 123.621 26.126 123.201 26.126C122.145 26.126 121.329 25.85 120.753 25.298C120.177 24.746 119.889 23.942 119.889 22.886V18.26H118.305V16.46H119.889V14.264H122.139V16.46H124.713V18.26H122.139V22.832C122.139 23.3 122.253 23.66 122.481 23.912C122.709 24.152 123.039 24.272 123.471 24.272C123.975 24.272 124.395 24.14 124.731 23.876L125.361 25.478ZM132.666 16.28C133.878 16.28 134.85 16.634 135.582 17.342C136.314 18.05 136.68 19.1 136.68 20.492V26H134.43V20.78C134.43 19.94 134.232 19.31 133.836 18.89C133.44 18.458 132.876 18.242 132.144 18.242C131.316 18.242 130.662 18.494 130.182 18.998C129.702 19.49 129.462 20.204 129.462 21.14V26H127.212V12.644H129.462V17.504C129.834 17.108 130.29 16.808 130.83 16.604C131.382 16.388 131.994 16.28 132.666 16.28ZM148.841 16.388V26H146.699V24.776C146.339 25.208 145.889 25.544 145.349 25.784C144.809 26.012 144.227 26.126 143.603 26.126C142.319 26.126 141.305 25.772 140.561 25.064C139.829 24.344 139.463 23.282 139.463 21.878V16.388H141.713V21.572C141.713 22.436 141.905 23.084 142.289 23.516C142.685 23.936 143.243 24.146 143.963 24.146C144.767 24.146 145.403 23.9 145.871 23.408C146.351 22.904 146.591 22.184 146.591 21.248V16.388H148.841ZM157.115 16.28C158.051 16.28 158.885 16.484 159.617 16.892C160.361 17.3 160.943 17.876 161.363 18.62C161.783 19.364 161.993 20.222 161.993 21.194C161.993 22.166 161.783 23.03 161.363 23.786C160.943 24.53 160.361 25.106 159.617 25.514C158.885 25.922 158.051 26.126 157.115 26.126C156.455 26.126 155.849 26.012 155.297 25.784C154.757 25.556 154.301 25.214 153.929 24.758V26H151.787V12.644H154.037V17.558C154.421 17.138 154.871 16.82 155.387 16.604C155.915 16.388 156.491 16.28 157.115 16.28ZM156.863 24.2C157.691 24.2 158.369 23.924 158.897 23.372C159.437 22.82 159.707 22.094 159.707 21.194C159.707 20.294 159.437 19.568 158.897 19.016C158.369 18.464 157.691 18.188 156.863 18.188C156.323 18.188 155.837 18.314 155.405 18.566C154.973 18.806 154.631 19.154 154.379 19.61C154.127 20.066 154.001 20.594 154.001 21.194C154.001 21.794 154.127 22.322 154.379 22.778C154.631 23.234 154.973 23.588 155.405 23.84C155.837 24.08 156.323 24.2 156.863 24.2ZM173.382 26.216C172.386 26.216 171.42 26.084 170.484 25.82C169.56 25.544 168.816 25.19 168.252 24.758L169.242 22.562C169.782 22.958 170.424 23.276 171.168 23.516C171.912 23.756 172.656 23.876 173.4 23.876C174.228 23.876 174.84 23.756 175.236 23.516C175.632 23.264 175.83 22.934 175.83 22.526C175.83 22.226 175.71 21.98 175.47 21.788C175.242 21.584 174.942 21.422 174.57 21.302C174.21 21.182 173.718 21.05 173.094 20.906C172.134 20.678 171.348 20.45 170.736 20.222C170.124 19.994 169.596 19.628 169.152 19.124C168.72 18.62 168.504 17.948 168.504 17.108C168.504 16.376 168.702 15.716 169.098 15.128C169.494 14.528 170.088 14.054 170.88 13.706C171.684 13.358 172.662 13.184 173.814 13.184C174.618 13.184 175.404 13.28 176.172 13.472C176.94 13.664 177.612 13.94 178.188 14.3L177.288 16.514C176.124 15.854 174.96 15.524 173.796 15.524C172.98 15.524 172.374 15.656 171.978 15.92C171.594 16.184 171.402 16.532 171.402 16.964C171.402 17.396 171.624 17.72 172.068 17.936C172.524 18.14 173.214 18.344 174.138 18.548C175.098 18.776 175.884 19.004 176.496 19.232C177.108 19.46 177.63 19.82 178.062 20.312C178.506 20.804 178.728 21.47 178.728 22.31C178.728 23.03 178.524 23.69 178.116 24.29C177.72 24.878 177.12 25.346 176.316 25.694C175.512 26.042 174.534 26.216 173.382 26.216ZM190.009 21.194C190.009 21.23 189.991 21.482 189.955 21.95H182.629C182.761 22.55 183.073 23.024 183.565 23.372C184.057 23.72 184.669 23.894 185.401 23.894C185.905 23.894 186.349 23.822 186.733 23.678C187.129 23.522 187.495 23.282 187.831 22.958L189.325 24.578C188.413 25.622 187.081 26.144 185.329 26.144C184.237 26.144 183.271 25.934 182.431 25.514C181.591 25.082 180.943 24.488 180.487 23.732C180.031 22.976 179.803 22.118 179.803 21.158C179.803 20.21 180.025 19.358 180.469 18.602C180.925 17.834 181.543 17.24 182.323 16.82C183.115 16.388 183.997 16.172 184.969 16.172C185.917 16.172 186.775 16.376 187.543 16.784C188.311 17.192 188.911 17.78 189.343 18.548C189.787 19.304 190.009 20.186 190.009 21.194ZM184.987 18.296C184.351 18.296 183.817 18.476 183.385 18.836C182.953 19.196 182.689 19.688 182.593 20.312H187.363C187.267 19.7 187.003 19.214 186.571 18.854C186.139 18.482 185.611 18.296 184.987 18.296ZM195.52 16.172C197.02 16.172 198.172 16.532 198.976 17.252C199.78 17.96 200.182 19.034 200.182 20.474V26H197.554V24.794C197.026 25.694 196.042 26.144 194.602 26.144C193.858 26.144 193.21 26.018 192.658 25.766C192.118 25.514 191.704 25.166 191.416 24.722C191.128 24.278 190.984 23.774 190.984 23.21C190.984 22.31 191.32 21.602 191.992 21.086C192.676 20.57 193.726 20.312 195.142 20.312H197.374C197.374 19.7 197.188 19.232 196.816 18.908C196.444 18.572 195.886 18.404 195.142 18.404C194.626 18.404 194.116 18.488 193.612 18.656C193.12 18.812 192.7 19.028 192.352 19.304L191.344 17.342C191.872 16.97 192.502 16.682 193.234 16.478C193.978 16.274 194.74 16.172 195.52 16.172ZM195.304 24.254C195.784 24.254 196.21 24.146 196.582 23.93C196.954 23.702 197.218 23.372 197.374 22.94V21.95H195.448C194.296 21.95 193.72 22.328 193.72 23.084C193.72 23.444 193.858 23.732 194.134 23.948C194.422 24.152 194.812 24.254 195.304 24.254ZM205.406 17.594C205.742 17.126 206.192 16.772 206.756 16.532C207.332 16.292 207.992 16.172 208.736 16.172V18.764C208.424 18.74 208.214 18.728 208.106 18.728C207.302 18.728 206.672 18.956 206.216 19.412C205.76 19.856 205.532 20.528 205.532 21.428V26H202.724V16.316H205.406V17.594ZM214.997 26.144C213.965 26.144 213.035 25.934 212.207 25.514C211.391 25.082 210.749 24.488 210.281 23.732C209.825 22.976 209.597 22.118 209.597 21.158C209.597 20.198 209.825 19.34 210.281 18.584C210.749 17.828 211.391 17.24 212.207 16.82C213.035 16.388 213.965 16.172 214.997 16.172C216.017 16.172 216.905 16.388 217.661 16.82C218.429 17.24 218.987 17.846 219.335 18.638L217.157 19.808C216.653 18.92 215.927 18.476 214.979 18.476C214.247 18.476 213.641 18.716 213.161 19.196C212.681 19.676 212.441 20.33 212.441 21.158C212.441 21.986 212.681 22.64 213.161 23.12C213.641 23.6 214.247 23.84 214.979 23.84C215.939 23.84 216.665 23.396 217.157 22.508L219.335 23.696C218.987 24.464 218.429 25.064 217.661 25.496C216.905 25.928 216.017 26.144 214.997 26.144ZM226.768 16.172C227.968 16.172 228.934 16.532 229.666 17.252C230.41 17.972 230.782 19.04 230.782 20.456V26H227.974V20.888C227.974 20.12 227.806 19.55 227.47 19.178C227.134 18.794 226.648 18.602 226.012 18.602C225.304 18.602 224.74 18.824 224.32 19.268C223.9 19.7 223.69 20.348 223.69 21.212V26H220.882V12.644H223.69V17.324C224.062 16.952 224.512 16.67 225.04 16.478C225.568 16.274 226.144 16.172 226.768 16.172Z" fill="black"/>
</svg>
