<svg width="12" height="12" viewBox="0 0 12 12" fill="none" xmlns="http://www.w3.org/2000/svg">
<path d="M10.5 4.125C10.5 4.35156 10.4629 4.56641 10.3887 4.76953C10.3145 4.97266 10.207 5.15625 10.0664 5.32031C9.92578 5.48438 9.76367 5.62305 9.58008 5.73633C9.39648 5.84961 9.19141 5.92578 8.96484 5.96484C8.92187 6.1875 8.8457 6.39258 8.73633 6.58008C8.62695 6.76758 8.48828 6.92969 8.32031 7.06641C8.15234 7.20313 7.96875 7.30859 7.76953 7.38281C7.57031 7.45703 7.35547 7.49609 7.125 7.5H4.875C4.75 7.5 4.63086 7.51953 4.51758 7.55859C4.4043 7.59766 4.30078 7.65234 4.20703 7.72266C4.11328 7.79297 4.03125 7.87695 3.96094 7.97461C3.89062 8.07227 3.83789 8.18164 3.80273 8.30273C4.01367 8.35352 4.20703 8.43555 4.38281 8.54883C4.55859 8.66211 4.71094 8.80078 4.83984 8.96484C4.96875 9.12891 5.06836 9.30859 5.13867 9.50391C5.20898 9.69922 5.24609 9.90625 5.25 10.125C5.25 10.3828 5.20117 10.625 5.10352 10.8516C5.00586 11.0781 4.87109 11.2773 4.69922 11.4492C4.52734 11.6211 4.32813 11.7559 4.10156 11.8535C3.875 11.9512 3.63281 12 3.375 12C3.11719 12 2.875 11.9512 2.64844 11.8535C2.42187 11.7559 2.22266 11.623 2.05078 11.4551C1.87891 11.2871 1.74414 11.0879 1.64648 10.8574C1.54883 10.627 1.5 10.3828 1.5 10.125C1.5 9.90234 1.53711 9.68945 1.61133 9.48633C1.68555 9.2832 1.78906 9.10156 1.92188 8.94141C2.05469 8.78125 2.21289 8.64258 2.39648 8.52539C2.58008 8.4082 2.78125 8.33008 3 8.29102V3.70898C2.78125 3.66602 2.58008 3.58789 2.39648 3.47461C2.21289 3.36133 2.05469 3.22461 1.92188 3.06445C1.78906 2.9043 1.68555 2.7207 1.61133 2.51367C1.53711 2.30664 1.5 2.09375 1.5 1.875C1.5 1.61719 1.54883 1.375 1.64648 1.14844C1.74414 0.921875 1.87695 0.724609 2.04492 0.556641C2.21289 0.388672 2.41211 0.253906 2.64258 0.152344C2.87305 0.0507812 3.11719 0 3.375 0C3.63281 0 3.875 0.0488281 4.10156 0.146484C4.32813 0.244141 4.52539 0.378906 4.69336 0.550781C4.86133 0.722656 4.99609 0.921875 5.09766 1.14844C5.19922 1.375 5.25 1.61719 5.25 1.875C5.25 2.09766 5.21289 2.31055 5.13867 2.51367C5.06445 2.7168 4.96094 2.89844 4.82812 3.05859C4.69531 3.21875 4.53711 3.35742 4.35352 3.47461C4.16992 3.5918 3.96875 3.66992 3.75 3.70898V7.13672C3.91406 7.01172 4.0918 6.91602 4.2832 6.84961C4.47461 6.7832 4.67187 6.75 4.875 6.75H7.125C7.25 6.75 7.36914 6.73047 7.48242 6.69141C7.5957 6.65234 7.69922 6.59766 7.79297 6.52734C7.88672 6.45703 7.96875 6.37305 8.03906 6.27539C8.10938 6.17773 8.16211 6.06836 8.19727 5.94727C7.98633 5.89648 7.79297 5.81445 7.61719 5.70117C7.44141 5.58789 7.28906 5.45117 7.16016 5.29102C7.03125 5.13086 6.93164 4.95117 6.86133 4.75195C6.79102 4.55273 6.75391 4.34375 6.75 4.125C6.75 3.86719 6.79883 3.625 6.89648 3.39844C6.99414 3.17187 7.12695 2.97461 7.29492 2.80664C7.46289 2.63867 7.66211 2.50391 7.89258 2.40234C8.12305 2.30078 8.36719 2.25 8.625 2.25C8.88281 2.25 9.125 2.29883 9.35156 2.39648C9.57813 2.49414 9.77539 2.62891 9.94336 2.80078C10.1113 2.97266 10.2461 3.17187 10.3477 3.39844C10.4492 3.625 10.5 3.86719 10.5 4.125ZM2.25 1.875C2.25 2.03125 2.2793 2.17773 2.33789 2.31445C2.39648 2.45117 2.47656 2.57031 2.57812 2.67188C2.67969 2.77344 2.79883 2.85352 2.93555 2.91211C3.07227 2.9707 3.21875 3 3.375 3C3.53125 3 3.67773 2.9707 3.81445 2.91211C3.95117 2.85352 4.07031 2.77344 4.17188 2.67188C4.27344 2.57031 4.35352 2.45117 4.41211 2.31445C4.4707 2.17773 4.5 2.03125 4.5 1.875C4.5 1.71875 4.4707 1.57227 4.41211 1.43555C4.35352 1.29883 4.27344 1.17969 4.17188 1.07812C4.07031 0.976562 3.95117 0.896484 3.81445 0.837891C3.67773 0.779297 3.53125 0.75 3.375 0.75C3.21875 0.75 3.07227 0.779297 2.93555 0.837891C2.79883 0.896484 2.67969 0.976562 2.57812 1.07812C2.47656 1.17969 2.39648 1.29883 2.33789 1.43555C2.2793 1.57227 2.25 1.71875 2.25 1.875ZM4.5 10.125C4.5 9.96875 4.4707 9.82227 4.41211 9.68555C4.35352 9.54883 4.27344 9.42969 4.17188 9.32812C4.07031 9.22656 3.95117 9.14648 3.81445 9.08789C3.67773 9.0293 3.53125 9 3.375 9C3.21875 9 3.07227 9.0293 2.93555 9.08789C2.79883 9.14648 2.67969 9.22656 2.57812 9.32812C2.47656 9.42969 2.39648 9.54883 2.33789 9.68555C2.2793 9.82227 2.25 9.96875 2.25 10.125C2.25 10.2812 2.2793 10.4277 2.33789 10.5645C2.39648 10.7012 2.47656 10.8203 2.57812 10.9219C2.67969 11.0234 2.79883 11.1035 2.93555 11.1621C3.07227 11.2207 3.21875 11.25 3.375 11.25C3.53125 11.25 3.67773 11.2207 3.81445 11.1621C3.95117 11.1035 4.07031 11.0234 4.17188 10.9219C4.27344 10.8203 4.35352 10.7012 4.41211 10.5645C4.4707 10.4277 4.5 10.2812 4.5 10.125ZM8.625 5.25C8.78125 5.25 8.92773 5.2207 9.06445 5.16211C9.20117 5.10352 9.32031 5.02344 9.42188 4.92188C9.52344 4.82031 9.60352 4.70117 9.66211 4.56445C9.7207 4.42773 9.75 4.28125 9.75 4.125C9.75 3.96875 9.7207 3.82227 9.66211 3.68555C9.60352 3.54883 9.52344 3.42969 9.42188 3.32812C9.32031 3.22656 9.20117 3.14648 9.06445 3.08789C8.92773 3.0293 8.78125 3 8.625 3C8.46875 3 8.32227 3.0293 8.18555 3.08789C8.04883 3.14648 7.92969 3.22656 7.82812 3.32812C7.72656 3.42969 7.64648 3.54883 7.58789 3.68555C7.5293 3.82227 7.5 3.96875 7.5 4.125C7.5 4.28125 7.5293 4.42773 7.58789 4.56445C7.64648 4.70117 7.72656 4.82031 7.82812 4.92188C7.92969 5.02344 8.04883 5.10352 8.18555 5.16211C8.32227 5.2207 8.46875 5.25 8.625 5.25Z" fill="black"/>
</svg>
