<svg width="24" height="24" viewBox="0 0 24 24" fill="none" xmlns="http://www.w3.org/2000/svg">
<rect width="24" height="24" rx="12" fill="white"/>
<path d="M6.5 12.1133H6.49997L6.50003 12.1184C6.50527 12.6325 6.57094 13.1274 6.69882 13.6017C6.82688 14.0765 7.01659 14.5255 7.26756 14.9474C7.51603 15.365 7.81022 15.7442 8.14993 16.0839C8.48964 16.4236 8.86689 16.7158 9.28086 16.96C9.69737 17.2056 10.1447 17.3944 10.6212 17.5267C11.1023 17.6604 11.6001 17.7266 12.1133 17.7266C12.7802 17.7266 13.4199 17.6152 14.0293 17.3907C14.494 17.2195 14.9302 16.9904 15.337 16.7047L20.7298 22.0906C20.912 22.2728 21.1468 22.375 21.4102 22.375C21.6874 22.375 21.9516 22.27 22.1401 22.0371C22.2973 21.8429 22.375 21.6122 22.375 21.3666C22.375 21.2362 22.3265 21.1353 22.3096 21.1009C22.2852 21.0515 22.2563 21.0061 22.2305 20.9685C22.178 20.8924 22.1083 20.8059 22.0287 20.7135C21.8715 20.5309 21.6647 20.3044 21.4103 20.0353C21.1557 19.7659 20.8651 19.4656 20.5388 19.1345C20.2135 18.8043 19.8761 18.4645 19.5266 18.115C19.1772 17.7656 18.8326 17.4233 18.4927 17.0884C18.1528 16.7533 17.8369 16.4447 17.545 16.1625C17.2558 15.8829 17.011 15.6429 16.8102 15.4422L16.7036 15.3355C16.9898 14.9255 17.2192 14.4875 17.3907 14.022C17.615 13.4131 17.7266 12.7758 17.7266 12.1133H17.7266L17.7265 12.1082C17.7213 11.5941 17.6556 11.0991 17.5277 10.6249C17.3997 10.15 17.21 9.70105 16.959 9.2792C16.7105 8.86157 16.4163 8.48237 16.0766 8.14266C15.7369 7.80295 15.3597 7.51072 14.9457 7.26658C14.5292 7.02095 14.0819 6.8322 13.6053 6.69982C13.1243 6.5662 12.6264 6.5 12.1133 6.5V6.49997L12.1082 6.50003C11.5941 6.50527 11.0991 6.57094 10.6249 6.69882C10.15 6.82688 9.70105 7.01659 9.2792 7.26756C8.86157 7.51603 8.48237 7.81022 8.14266 8.14993C7.80295 8.48964 7.51072 8.86689 7.26658 9.28086C7.02095 9.69737 6.8322 10.1447 6.69982 10.6212C6.5662 11.1023 6.5 11.6001 6.5 12.1133ZM13.5433 15.5105C13.1003 15.7003 12.626 15.7966 12.1154 15.7969C11.598 15.7923 11.1229 15.6934 10.6849 15.5039C10.237 15.3101 9.84598 15.0468 9.50846 14.7136C9.1733 14.3827 8.90927 13.994 8.7161 13.5433C8.52625 13.1003 8.42995 12.6259 8.42969 12.1154C8.43425 11.598 8.53315 11.1229 8.72268 10.6849C8.91649 10.237 9.17972 9.84598 9.51296 9.50846C9.84388 9.1733 10.2326 8.90927 10.6833 8.7161C11.1263 8.52625 11.6006 8.42995 12.1112 8.42969C12.6286 8.43425 13.1037 8.53315 13.5417 8.72268C13.9896 8.91649 14.3806 9.17972 14.7181 9.51296C15.0533 9.84388 15.3173 10.2326 15.5105 10.6833C15.7003 11.1263 15.7966 11.6006 15.7969 12.1112C15.7923 12.6285 15.6934 13.1036 15.5039 13.5417C15.3101 13.9896 15.0468 14.3806 14.7136 14.7181C14.3827 15.0533 13.994 15.3173 13.5433 15.5105Z" fill="#010101" stroke="black"/>
</svg>
