<svg width="36" height="36" viewBox="0 0 36 36" fill="none" xmlns="http://www.w3.org/2000/svg">
<rect width="36" height="36" rx="12" fill="white"/>
<path d="M10 18.1699H9.99997L10 18.175C10.0077 18.9264 10.1036 19.6477 10.2896 20.3374C10.4758 21.0278 10.7514 21.6801 11.1162 22.2932C11.4785 22.9021 11.907 23.4544 12.4017 23.9491C12.8963 24.4437 13.4455 24.8691 14.0483 25.2246C14.6536 25.5816 15.3043 25.8563 15.9988 26.0492C16.6977 26.2434 17.4219 26.3398 18.1699 26.3398C19.1418 26.3398 20.0721 26.1776 20.9575 25.8514C21.699 25.5782 22.3907 25.2039 23.0318 24.7299L31.2714 32.9591C31.2715 32.9591 31.2716 32.9592 31.2716 32.9593C31.4999 33.1874 31.789 33.3125 32.1152 33.3125C32.4651 33.3125 32.7862 33.182 33.0159 32.8983C33.2142 32.6533 33.3125 32.3633 33.3125 32.0499C33.3125 31.914 33.2617 31.8057 33.24 31.7617C33.211 31.7028 33.1751 31.6458 33.1398 31.5946C33.0686 31.4912 32.9708 31.3693 32.8536 31.2333C32.6214 30.9636 32.3141 30.6269 31.9338 30.2247C31.5533 29.8222 31.1186 29.3729 30.6302 28.8772C30.1426 28.3824 29.637 27.8731 29.1132 27.3493C28.5894 26.8255 28.0729 26.3126 27.5636 25.8106C27.0542 25.3085 26.5809 24.8461 26.1438 24.4236C25.7093 24.0035 25.341 23.6425 25.0386 23.34L24.7287 23.0302C25.2032 22.3837 25.5779 21.689 25.8514 20.9466C26.1775 20.0617 26.3398 19.1351 26.3398 18.1699H26.3399L26.3398 18.1648C26.3322 17.4134 26.2362 16.6921 26.0502 16.0024C25.8641 15.3121 25.5884 14.6597 25.2236 14.0466C24.8614 13.4377 24.4328 12.8854 23.9382 12.3908C23.4435 11.8961 22.8944 11.4707 22.2916 11.1152C21.6862 10.7582 21.0355 10.4835 20.3411 10.2906C19.6422 10.0965 18.9179 10 18.1699 10V9.99997L18.1648 10C17.4134 10.0077 16.6921 10.1036 16.0024 10.2896C15.3121 10.4758 14.6597 10.7514 14.0466 11.1162C13.4377 11.4785 12.8854 11.907 12.3908 12.4017C11.8961 12.8963 11.4707 13.4455 11.1152 14.0483C10.7582 14.6536 10.4835 15.3043 10.2906 15.9988C10.0965 16.6977 10 17.4219 10 18.1699ZM20.4134 23.4955C19.7162 23.7943 18.9707 23.945 18.172 23.9453C17.3641 23.9383 16.6179 23.7837 15.928 23.4853C15.2283 23.1825 14.6158 22.7704 14.087 22.2483C13.5606 21.7285 13.1465 21.1183 12.8444 20.4134C12.5456 19.7162 12.3948 18.9707 12.3945 18.172C12.4015 17.3641 12.5561 16.6179 12.8546 15.928C13.1573 15.2283 13.5695 14.6158 14.0915 14.087C14.6113 13.5606 15.2215 13.1465 15.9265 12.8444C16.6236 12.5456 17.3691 12.3948 18.1678 12.3945C18.9757 12.4015 19.722 12.5561 20.4118 12.8546C21.1115 13.1573 21.724 13.5695 22.2528 14.0915C22.7792 14.6113 23.1934 15.2215 23.4955 15.9265C23.7943 16.6236 23.945 17.3691 23.9453 18.1678C23.9383 18.9757 23.7837 19.722 23.4853 20.4118C23.1825 21.1115 22.7704 21.724 22.2483 22.2528C21.7285 22.7792 21.1183 23.1934 20.4134 23.4955Z" fill="#010101" stroke="black"/>
</svg>
