<svg width="189" height="36" viewBox="0 0 189 36" fill="none" xmlns="http://www.w3.org/2000/svg">
<path d="M18 0.445461C8.05613 0.445461 0 8.50834 0 18.4455C0 26.4026 5.157 33.147 12.3041 35.5263C13.2075 35.6962 13.5337 35.1393 13.5337 34.6578C13.5337 34.2303 13.5236 33.0997 13.5169 31.599C8.50725 32.6835 7.452 29.1791 7.452 29.1791C6.63188 27.1046 5.44837 26.5477 5.44837 26.5477C3.81937 25.4351 5.57775 25.4587 5.57775 25.4587C7.38225 25.5813 8.33175 27.3093 8.33175 27.3093C9.93713 30.0633 12.5438 29.2668 13.5754 28.8033C13.7329 27.6435 14.202 26.8458 14.7128 26.4015C10.7168 25.9503 6.51487 24.4035 6.51487 17.5061C6.51487 15.5362 7.21237 13.932 8.3655 12.672C8.16637 12.2208 7.55663 10.3871 8.52413 7.90759C8.52413 7.90759 10.0305 7.42721 13.4741 9.75371C14.941 9.35474 16.454 9.15012 17.9741 9.14509C19.5041 9.15521 21.033 9.35546 22.4741 9.75371C25.8975 7.42721 27.4027 7.90759 27.4027 7.90759C28.3691 10.3871 27.7594 12.2197 27.5839 12.672C28.7257 13.932 29.4232 15.5373 29.4232 17.5061C29.4232 24.4192 25.2157 25.9436 21.2152 26.3835C21.8407 26.9223 22.4269 28.0305 22.4269 29.7123C22.4269 32.1198 22.4044 34.0593 22.4044 34.6455C22.4044 35.1135 22.7194 35.676 23.6464 35.4948C30.8464 33.1402 35.9977 26.3902 35.9977 18.4443C35.9977 8.50721 27.9416 0.444336 17.9978 0.444336L18 0.445461Z" fill="white"/>
<path d="M58.296 20.556H60.51V25.578C59.862 26.094 59.106 26.49 58.242 26.766C57.378 27.042 56.49 27.18 55.578 27.18C54.294 27.18 53.136 26.904 52.104 26.352C51.072 25.788 50.262 25.014 49.674 24.03C49.086 23.046 48.792 21.936 48.792 20.7C48.792 19.464 49.086 18.354 49.674 17.37C50.262 16.386 51.072 15.618 52.104 15.066C53.148 14.502 54.318 14.22 55.614 14.22C56.67 14.22 57.63 14.394 58.494 14.742C59.358 15.09 60.084 15.6 60.672 16.272L59.196 17.712C58.236 16.752 57.078 16.272 55.722 16.272C54.834 16.272 54.042 16.458 53.346 16.83C52.662 17.202 52.122 17.724 51.726 18.396C51.342 19.068 51.15 19.836 51.15 20.7C51.15 21.54 51.342 22.296 51.726 22.968C52.122 23.64 52.662 24.168 53.346 24.552C54.042 24.936 54.828 25.128 55.704 25.128C56.688 25.128 57.552 24.912 58.296 24.48V20.556ZM63.3803 17.388H65.6303V27H63.3803V17.388ZM64.5143 15.804C64.1063 15.804 63.7643 15.678 63.4883 15.426C63.2123 15.162 63.0743 14.838 63.0743 14.454C63.0743 14.07 63.2123 13.752 63.4883 13.5C63.7643 13.236 64.1063 13.104 64.5143 13.104C64.9223 13.104 65.2643 13.23 65.5403 13.482C65.8163 13.722 65.9543 14.028 65.9543 14.4C65.9543 14.796 65.8163 15.132 65.5403 15.408C65.2763 15.672 64.9343 15.804 64.5143 15.804ZM74.3614 26.478C74.0974 26.694 73.7734 26.856 73.3894 26.964C73.0174 27.072 72.6214 27.126 72.2014 27.126C71.1454 27.126 70.3294 26.85 69.7534 26.298C69.1774 25.746 68.8894 24.942 68.8894 23.886V19.26H67.3054V17.46H68.8894V15.264H71.1394V17.46H73.7134V19.26H71.1394V23.832C71.1394 24.3 71.2534 24.66 71.4814 24.912C71.7094 25.152 72.0394 25.272 72.4714 25.272C72.9754 25.272 73.3954 25.14 73.7314 24.876L74.3614 26.478ZM81.6663 17.28C82.8783 17.28 83.8503 17.634 84.5823 18.342C85.3143 19.05 85.6803 20.1 85.6803 21.492V27H83.4303V21.78C83.4303 20.94 83.2323 20.31 82.8363 19.89C82.4403 19.458 81.8763 19.242 81.1443 19.242C80.3163 19.242 79.6623 19.494 79.1823 19.998C78.7023 20.49 78.4623 21.204 78.4623 22.14V27H76.2123V13.644H78.4623V18.504C78.8343 18.108 79.2903 17.808 79.8303 17.604C80.3823 17.388 80.9943 17.28 81.6663 17.28ZM97.8406 17.388V27H95.6986V25.776C95.3386 26.208 94.8886 26.544 94.3486 26.784C93.8086 27.012 93.2266 27.126 92.6026 27.126C91.3186 27.126 90.3046 26.772 89.5606 26.064C88.8286 25.344 88.4626 24.282 88.4626 22.878V17.388H90.7126V22.572C90.7126 23.436 90.9046 24.084 91.2886 24.516C91.6846 24.936 92.2426 25.146 92.9626 25.146C93.7666 25.146 94.4026 24.9 94.8706 24.408C95.3506 23.904 95.5906 23.184 95.5906 22.248V17.388H97.8406ZM106.115 17.28C107.051 17.28 107.885 17.484 108.617 17.892C109.361 18.3 109.943 18.876 110.363 19.62C110.783 20.364 110.993 21.222 110.993 22.194C110.993 23.166 110.783 24.03 110.363 24.786C109.943 25.53 109.361 26.106 108.617 26.514C107.885 26.922 107.051 27.126 106.115 27.126C105.455 27.126 104.849 27.012 104.297 26.784C103.757 26.556 103.301 26.214 102.929 25.758V27H100.787V13.644H103.037V18.558C103.421 18.138 103.871 17.82 104.387 17.604C104.915 17.388 105.491 17.28 106.115 17.28ZM105.863 25.2C106.691 25.2 107.369 24.924 107.897 24.372C108.437 23.82 108.707 23.094 108.707 22.194C108.707 21.294 108.437 20.568 107.897 20.016C107.369 19.464 106.691 19.188 105.863 19.188C105.323 19.188 104.837 19.314 104.405 19.566C103.973 19.806 103.631 20.154 103.379 20.61C103.127 21.066 103.001 21.594 103.001 22.194C103.001 22.794 103.127 23.322 103.379 23.778C103.631 24.234 103.973 24.588 104.405 24.84C104.837 25.08 105.323 25.2 105.863 25.2ZM122.382 27.216C121.386 27.216 120.42 27.084 119.484 26.82C118.56 26.544 117.816 26.19 117.252 25.758L118.242 23.562C118.782 23.958 119.424 24.276 120.168 24.516C120.912 24.756 121.656 24.876 122.4 24.876C123.228 24.876 123.84 24.756 124.236 24.516C124.632 24.264 124.83 23.934 124.83 23.526C124.83 23.226 124.71 22.98 124.47 22.788C124.242 22.584 123.942 22.422 123.57 22.302C123.21 22.182 122.718 22.05 122.094 21.906C121.134 21.678 120.348 21.45 119.736 21.222C119.124 20.994 118.596 20.628 118.152 20.124C117.72 19.62 117.504 18.948 117.504 18.108C117.504 17.376 117.702 16.716 118.098 16.128C118.494 15.528 119.088 15.054 119.88 14.706C120.684 14.358 121.662 14.184 122.814 14.184C123.618 14.184 124.404 14.28 125.172 14.472C125.94 14.664 126.612 14.94 127.188 15.3L126.288 17.514C125.124 16.854 123.96 16.524 122.796 16.524C121.98 16.524 121.374 16.656 120.978 16.92C120.594 17.184 120.402 17.532 120.402 17.964C120.402 18.396 120.624 18.72 121.068 18.936C121.524 19.14 122.214 19.344 123.138 19.548C124.098 19.776 124.884 20.004 125.496 20.232C126.108 20.46 126.63 20.82 127.062 21.312C127.506 21.804 127.728 22.47 127.728 23.31C127.728 24.03 127.524 24.69 127.116 25.29C126.72 25.878 126.12 26.346 125.316 26.694C124.512 27.042 123.534 27.216 122.382 27.216ZM139.009 22.194C139.009 22.23 138.991 22.482 138.955 22.95H131.629C131.761 23.55 132.073 24.024 132.565 24.372C133.057 24.72 133.669 24.894 134.401 24.894C134.905 24.894 135.349 24.822 135.733 24.678C136.129 24.522 136.495 24.282 136.831 23.958L138.325 25.578C137.413 26.622 136.081 27.144 134.329 27.144C133.237 27.144 132.271 26.934 131.431 26.514C130.591 26.082 129.943 25.488 129.487 24.732C129.031 23.976 128.803 23.118 128.803 22.158C128.803 21.21 129.025 20.358 129.469 19.602C129.925 18.834 130.543 18.24 131.323 17.82C132.115 17.388 132.997 17.172 133.969 17.172C134.917 17.172 135.775 17.376 136.543 17.784C137.311 18.192 137.911 18.78 138.343 19.548C138.787 20.304 139.009 21.186 139.009 22.194ZM133.987 19.296C133.351 19.296 132.817 19.476 132.385 19.836C131.953 20.196 131.689 20.688 131.593 21.312H136.363C136.267 20.7 136.003 20.214 135.571 19.854C135.139 19.482 134.611 19.296 133.987 19.296ZM144.52 17.172C146.02 17.172 147.172 17.532 147.976 18.252C148.78 18.96 149.182 20.034 149.182 21.474V27H146.554V25.794C146.026 26.694 145.042 27.144 143.602 27.144C142.858 27.144 142.21 27.018 141.658 26.766C141.118 26.514 140.704 26.166 140.416 25.722C140.128 25.278 139.984 24.774 139.984 24.21C139.984 23.31 140.32 22.602 140.992 22.086C141.676 21.57 142.726 21.312 144.142 21.312H146.374C146.374 20.7 146.188 20.232 145.816 19.908C145.444 19.572 144.886 19.404 144.142 19.404C143.626 19.404 143.116 19.488 142.612 19.656C142.12 19.812 141.7 20.028 141.352 20.304L140.344 18.342C140.872 17.97 141.502 17.682 142.234 17.478C142.978 17.274 143.74 17.172 144.52 17.172ZM144.304 25.254C144.784 25.254 145.21 25.146 145.582 24.93C145.954 24.702 146.218 24.372 146.374 23.94V22.95H144.448C143.296 22.95 142.72 23.328 142.72 24.084C142.72 24.444 142.858 24.732 143.134 24.948C143.422 25.152 143.812 25.254 144.304 25.254ZM154.406 18.594C154.742 18.126 155.192 17.772 155.756 17.532C156.332 17.292 156.992 17.172 157.736 17.172V19.764C157.424 19.74 157.214 19.728 157.106 19.728C156.302 19.728 155.672 19.956 155.216 20.412C154.76 20.856 154.532 21.528 154.532 22.428V27H151.724V17.316H154.406V18.594ZM163.997 27.144C162.965 27.144 162.035 26.934 161.207 26.514C160.391 26.082 159.749 25.488 159.281 24.732C158.825 23.976 158.597 23.118 158.597 22.158C158.597 21.198 158.825 20.34 159.281 19.584C159.749 18.828 160.391 18.24 161.207 17.82C162.035 17.388 162.965 17.172 163.997 17.172C165.017 17.172 165.905 17.388 166.661 17.82C167.429 18.24 167.987 18.846 168.335 19.638L166.157 20.808C165.653 19.92 164.927 19.476 163.979 19.476C163.247 19.476 162.641 19.716 162.161 20.196C161.681 20.676 161.441 21.33 161.441 22.158C161.441 22.986 161.681 23.64 162.161 24.12C162.641 24.6 163.247 24.84 163.979 24.84C164.939 24.84 165.665 24.396 166.157 23.508L168.335 24.696C167.987 25.464 167.429 26.064 166.661 26.496C165.905 26.928 165.017 27.144 163.997 27.144ZM175.768 17.172C176.968 17.172 177.934 17.532 178.666 18.252C179.41 18.972 179.782 20.04 179.782 21.456V27H176.974V21.888C176.974 21.12 176.806 20.55 176.47 20.178C176.134 19.794 175.648 19.602 175.012 19.602C174.304 19.602 173.74 19.824 173.32 20.268C172.9 20.7 172.69 21.348 172.69 22.212V27H169.882V13.644H172.69V18.324C173.062 17.952 173.512 17.67 174.04 17.478C174.568 17.274 175.144 17.172 175.768 17.172Z" fill="#FEFEFE"/>
</svg>
