<svg width="36" height="36" viewBox="0 0 36 36" fill="none" xmlns="http://www.w3.org/2000/svg">
<rect width="36" height="36" rx="18" fill="#010101"/>
<path d="M28.9888 14.25C28.9888 14.7031 28.9146 15.1328 28.7662 15.5391C28.6177 15.9453 28.4029 16.3125 28.1217 16.6406C27.8404 16.9688 27.5162 17.2461 27.149 17.4727C26.7818 17.6992 26.3717 17.8516 25.9185 17.9297C25.8326 18.375 25.6802 18.7852 25.4615 19.1602C25.2427 19.5352 24.9654 19.8594 24.6295 20.1328C24.2935 20.4063 23.9263 20.6172 23.5279 20.7656C23.1295 20.9141 22.6998 20.9922 22.2388 21H17.7388C17.4888 21 17.2506 21.0391 17.024 21.1172C16.7974 21.1953 16.5904 21.3047 16.4029 21.4453C16.2154 21.5859 16.0513 21.7539 15.9107 21.9492C15.7701 22.1445 15.6646 22.3633 15.5943 22.6055C16.0162 22.707 16.4029 22.8711 16.7545 23.0977C17.106 23.3242 17.4107 23.6016 17.6685 23.9297C17.9263 24.2578 18.1256 24.6172 18.2662 25.0078C18.4068 25.3984 18.481 25.8125 18.4888 26.25C18.4888 26.7656 18.3912 27.25 18.1959 27.7031C18.0006 28.1563 17.731 28.5547 17.3873 28.8984C17.0435 29.2422 16.6451 29.5117 16.192 29.707C15.7388 29.9023 15.2545 30 14.7388 30C14.2232 30 13.7388 29.9023 13.2857 29.707C12.8326 29.5117 12.4381 29.2461 12.1021 28.9102C11.7662 28.5742 11.4967 28.1758 11.2935 27.7148C11.0904 27.2539 10.9927 26.7656 11.0006 26.25C11.0006 25.8047 11.0748 25.3828 11.2232 24.9844C11.3717 24.5859 11.5748 24.2187 11.8326 23.8828C12.0904 23.5469 12.4068 23.2695 12.7818 23.0508C13.1568 22.832 13.5592 22.6758 13.9888 22.582V13.418C13.5513 13.332 13.149 13.1758 12.7818 12.9492C12.4146 12.7227 12.1021 12.4453 11.8443 12.1172C11.5865 11.7891 11.3795 11.4258 11.2232 11.0273C11.067 10.6289 10.9927 10.2031 11.0006 9.75C11.0006 9.23438 11.0982 8.75 11.2935 8.29688C11.4888 7.84375 11.7545 7.44922 12.0904 7.11328C12.4263 6.77734 12.8248 6.50781 13.2857 6.30469C13.7467 6.10156 14.231 6 14.7388 6C15.2545 6 15.7388 6.09766 16.192 6.29297C16.6451 6.48828 17.0396 6.75781 17.3756 7.10156C17.7115 7.44531 17.981 7.84375 18.1842 8.29688C18.3873 8.75 18.4888 9.23438 18.4888 9.75C18.4888 10.1953 18.4146 10.6211 18.2662 11.0273C18.1177 11.4336 17.9107 11.7969 17.6451 12.1172C17.3795 12.4375 17.0631 12.7148 16.6959 12.9492C16.3287 13.1836 15.9263 13.3398 15.4888 13.418V20.2734C15.817 20.0234 16.1724 19.832 16.5552 19.6992C16.9381 19.5664 17.3326 19.5 17.7388 19.5H22.2388C22.4888 19.5 22.7271 19.4609 22.9537 19.3828C23.1802 19.3047 23.3873 19.1953 23.5748 19.0547C23.7623 18.9141 23.9263 18.7461 24.067 18.5508C24.2076 18.3555 24.3131 18.1367 24.3834 17.8945C23.9615 17.793 23.5748 17.6289 23.2232 17.4023C22.8717 17.1758 22.567 16.9023 22.3092 16.582C22.0513 16.2617 21.8521 15.9023 21.7115 15.5039C21.5709 15.1055 21.4967 14.6875 21.4888 14.25C21.4888 13.7344 21.5865 13.25 21.7818 12.7969C21.9771 12.3437 22.2427 11.9492 22.5787 11.6133C22.9146 11.2773 23.3131 11.0078 23.774 10.8047C24.2349 10.6016 24.7232 10.5 25.2388 10.5C25.7545 10.5 26.2388 10.5977 26.692 10.793C27.1451 10.9883 27.5396 11.2578 27.8756 11.6016C28.2115 11.9453 28.481 12.3437 28.6842 12.7969C28.8873 13.25 28.9888 13.7344 28.9888 14.25ZM12.4888 9.75C12.4888 10.0625 12.5474 10.3555 12.6646 10.6289C12.7818 10.9023 12.942 11.1406 13.1451 11.3438C13.3482 11.5469 13.5865 11.707 13.8599 11.8242C14.1334 11.9414 14.4263 12 14.7388 12C15.0513 12 15.3443 11.9414 15.6177 11.8242C15.8912 11.707 16.1295 11.5469 16.3326 11.3438C16.5357 11.1406 16.6959 10.9023 16.8131 10.6289C16.9302 10.3555 16.9888 10.0625 16.9888 9.75C16.9888 9.4375 16.9302 9.14453 16.8131 8.87109C16.6959 8.59766 16.5357 8.35938 16.3326 8.15625C16.1295 7.95312 15.8912 7.79297 15.6177 7.67578C15.3443 7.55859 15.0513 7.5 14.7388 7.5C14.4263 7.5 14.1334 7.55859 13.8599 7.67578C13.5865 7.79297 13.3482 7.95312 13.1451 8.15625C12.942 8.35938 12.7818 8.59766 12.6646 8.87109C12.5474 9.14453 12.4888 9.4375 12.4888 9.75ZM16.9888 26.25C16.9888 25.9375 16.9302 25.6445 16.8131 25.3711C16.6959 25.0977 16.5357 24.8594 16.3326 24.6562C16.1295 24.4531 15.8912 24.293 15.6177 24.1758C15.3443 24.0586 15.0513 24 14.7388 24C14.4263 24 14.1334 24.0586 13.8599 24.1758C13.5865 24.293 13.3482 24.4531 13.1451 24.6562C12.942 24.8594 12.7818 25.0977 12.6646 25.3711C12.5474 25.6445 12.4888 25.9375 12.4888 26.25C12.4888 26.5625 12.5474 26.8555 12.6646 27.1289C12.7818 27.4023 12.942 27.6406 13.1451 27.8438C13.3482 28.0469 13.5865 28.207 13.8599 28.3242C14.1334 28.4414 14.4263 28.5 14.7388 28.5C15.0513 28.5 15.3443 28.4414 15.6177 28.3242C15.8912 28.207 16.1295 28.0469 16.3326 27.8438C16.5357 27.6406 16.6959 27.4023 16.8131 27.1289C16.9302 26.8555 16.9888 26.5625 16.9888 26.25ZM25.2388 16.5C25.5513 16.5 25.8443 16.4414 26.1177 16.3242C26.3912 16.207 26.6295 16.0469 26.8326 15.8438C27.0357 15.6406 27.1959 15.4023 27.3131 15.1289C27.4302 14.8555 27.4888 14.5625 27.4888 14.25C27.4888 13.9375 27.4302 13.6445 27.3131 13.3711C27.1959 13.0977 27.0357 12.8594 26.8326 12.6562C26.6295 12.4531 26.3912 12.293 26.1177 12.1758C25.8443 12.0586 25.5513 12 25.2388 12C24.9263 12 24.6334 12.0586 24.3599 12.1758C24.0865 12.293 23.8482 12.4531 23.6451 12.6562C23.442 12.8594 23.2818 13.0977 23.1646 13.3711C23.0474 13.6445 22.9888 13.9375 22.9888 14.25C22.9888 14.5625 23.0474 14.8555 23.1646 15.1289C23.2818 15.4023 23.442 15.6406 23.6451 15.8438C23.8482 16.0469 24.0865 16.207 24.3599 16.3242C24.6334 16.4414 24.9263 16.5 25.2388 16.5Z" fill="white"/>
</svg>
