<svg width="126" height="24" viewBox="0 0 126 24" fill="none" xmlns="http://www.w3.org/2000/svg">
<path d="M12 0.297137C5.37075 0.297137 0 5.67239 0 12.2972C0 17.6019 3.438 22.0982 8.20273 23.6844C8.805 23.7976 9.02247 23.4264 9.02247 23.1054C9.02247 22.8204 9.01573 22.0666 9.01127 21.0662C5.6715 21.7892 4.968 19.4529 4.968 19.4529C4.42125 18.0699 3.63225 17.6986 3.63225 17.6986C2.54625 16.9569 3.7185 16.9726 3.7185 16.9726C4.9215 17.0544 5.5545 18.2064 5.5545 18.2064C6.62475 20.0424 8.36253 19.5114 9.05027 19.2024C9.15527 18.4292 9.468 17.8974 9.80853 17.6012C7.14453 17.3004 4.34325 16.2692 4.34325 11.6709C4.34325 10.3576 4.80825 9.28816 5.577 8.44816C5.44425 8.14736 5.03775 6.9249 5.68275 5.27189C5.68275 5.27189 6.687 4.95164 8.98273 6.50264C9.96067 6.23666 10.9693 6.10024 11.9827 6.09689C13.0027 6.10364 14.022 6.23714 14.9827 6.50264C17.265 4.95164 18.2685 5.27189 18.2685 5.27189C18.9127 6.9249 18.5063 8.14663 18.3893 8.44816C19.1505 9.28816 19.6155 10.3584 19.6155 11.6709C19.6155 16.2796 16.8105 17.2959 14.1435 17.5892C14.5605 17.9484 14.9513 18.6872 14.9513 19.8084C14.9513 21.4134 14.9363 22.7064 14.9363 23.0972C14.9363 23.4092 15.1463 23.7842 15.7643 23.6634C20.5643 22.0936 23.9985 17.5936 23.9985 12.2964C23.9985 5.67164 18.6277 0.296387 11.9985 0.296387L12 0.297137Z" fill="#010101"/>
<path d="M38.864 13.7038H40.34V17.0518C39.908 17.3958 39.404 17.6598 38.828 17.8438C38.252 18.0278 37.66 18.1198 37.052 18.1198C36.196 18.1198 35.424 17.9358 34.736 17.5678C34.048 17.1918 33.508 16.6758 33.116 16.0198C32.724 15.3638 32.528 14.6238 32.528 13.7998C32.528 12.9758 32.724 12.2358 33.116 11.5798C33.508 10.9238 34.048 10.4118 34.736 10.0438C35.432 9.66784 36.212 9.47984 37.076 9.47984C37.78 9.47984 38.42 9.59584 38.996 9.82784C39.572 10.0598 40.056 10.3998 40.448 10.8478L39.464 11.8078C38.824 11.1678 38.052 10.8478 37.148 10.8478C36.556 10.8478 36.028 10.9718 35.564 11.2198C35.108 11.4678 34.748 11.8158 34.484 12.2638C34.228 12.7118 34.1 13.2238 34.1 13.7998C34.1 14.3598 34.228 14.8638 34.484 15.3118C34.748 15.7598 35.108 16.1118 35.564 16.3678C36.028 16.6238 36.552 16.7518 37.136 16.7518C37.792 16.7518 38.368 16.6078 38.864 16.3198V13.7038ZM42.2535 11.5918H43.7535V17.9998H42.2535V11.5918ZM43.0095 10.5358C42.7375 10.5358 42.5095 10.4518 42.3255 10.2838C42.1415 10.1078 42.0495 9.89184 42.0495 9.63584C42.0495 9.37984 42.1415 9.16784 42.3255 8.99984C42.5095 8.82384 42.7375 8.73584 43.0095 8.73584C43.2815 8.73584 43.5095 8.81984 43.6935 8.98784C43.8775 9.14784 43.9695 9.35184 43.9695 9.59984C43.9695 9.86384 43.8775 10.0878 43.6935 10.2718C43.5175 10.4478 43.2895 10.5358 43.0095 10.5358ZM49.5742 17.6518C49.3982 17.7958 49.1822 17.9038 48.9262 17.9758C48.6782 18.0478 48.4142 18.0838 48.1342 18.0838C47.4302 18.0838 46.8862 17.8998 46.5022 17.5318C46.1182 17.1638 45.9262 16.6278 45.9262 15.9238V12.8398H44.8702V11.6398H45.9262V10.1758H47.4262V11.6398H49.1422V12.8398H47.4262V15.8878C47.4262 16.1998 47.5022 16.4398 47.6542 16.6078C47.8062 16.7678 48.0262 16.8478 48.3142 16.8478C48.6502 16.8478 48.9302 16.7598 49.1542 16.5838L49.5742 17.6518ZM54.4442 11.5198C55.2522 11.5198 55.9002 11.7558 56.3882 12.2278C56.8762 12.6998 57.1202 13.3998 57.1202 14.3278V17.9998H55.6202V14.5198C55.6202 13.9598 55.4882 13.5398 55.2242 13.2598C54.9602 12.9718 54.5842 12.8278 54.0962 12.8278C53.5442 12.8278 53.1082 12.9958 52.7882 13.3318C52.4682 13.6598 52.3082 14.1358 52.3082 14.7598V17.9998H50.8082V9.09584H52.3082V12.3358C52.5562 12.0718 52.8602 11.8718 53.2202 11.7358C53.5882 11.5918 53.9962 11.5198 54.4442 11.5198ZM65.227 11.5918V17.9998H63.799V17.1838C63.559 17.4718 63.259 17.6958 62.899 17.8558C62.539 18.0078 62.151 18.0838 61.735 18.0838C60.879 18.0838 60.203 17.8478 59.707 17.3758C59.219 16.8958 58.975 16.1878 58.975 15.2518V11.5918H60.475V15.0478C60.475 15.6238 60.603 16.0558 60.859 16.3438C61.123 16.6238 61.495 16.7638 61.975 16.7638C62.511 16.7638 62.935 16.5998 63.247 16.2718C63.567 15.9358 63.727 15.4558 63.727 14.8318V11.5918H65.227ZM70.7433 11.5198C71.3673 11.5198 71.9233 11.6558 72.4113 11.9278C72.9073 12.1998 73.2953 12.5838 73.5753 13.0798C73.8553 13.5758 73.9953 14.1478 73.9953 14.7958C73.9953 15.4438 73.8553 16.0198 73.5753 16.5238C73.2953 17.0198 72.9073 17.4038 72.4113 17.6758C71.9233 17.9478 71.3673 18.0838 70.7433 18.0838C70.3033 18.0838 69.8993 18.0078 69.5313 17.8558C69.1713 17.7038 68.8673 17.4758 68.6193 17.1718V17.9998H67.1913V9.09584H68.6913V12.3718C68.9473 12.0918 69.2473 11.8798 69.5913 11.7358C69.9433 11.5918 70.3273 11.5198 70.7433 11.5198ZM70.5753 16.7998C71.1273 16.7998 71.5793 16.6158 71.9313 16.2478C72.2913 15.8798 72.4713 15.3958 72.4713 14.7958C72.4713 14.1958 72.2913 13.7118 71.9313 13.3438C71.5793 12.9758 71.1273 12.7918 70.5753 12.7918C70.2153 12.7918 69.8913 12.8758 69.6033 13.0438C69.3153 13.2038 69.0873 13.4358 68.9193 13.7398C68.7513 14.0438 68.6673 14.3958 68.6673 14.7958C68.6673 15.1958 68.7513 15.5478 68.9193 15.8518C69.0873 16.1558 69.3153 16.3918 69.6033 16.5598C69.8913 16.7198 70.2153 16.7998 70.5753 16.7998ZM81.588 18.1438C80.924 18.1438 80.28 18.0558 79.656 17.8798C79.04 17.6958 78.544 17.4598 78.168 17.1718L78.828 15.7078C79.188 15.9718 79.616 16.1838 80.112 16.3438C80.608 16.5038 81.104 16.5838 81.6 16.5838C82.152 16.5838 82.56 16.5038 82.824 16.3438C83.088 16.1758 83.22 15.9558 83.22 15.6838C83.22 15.4838 83.14 15.3198 82.98 15.1918C82.828 15.0558 82.628 14.9478 82.38 14.8678C82.14 14.7878 81.812 14.6998 81.396 14.6038C80.756 14.4518 80.232 14.2998 79.824 14.1478C79.416 13.9958 79.064 13.7518 78.768 13.4158C78.48 13.0798 78.336 12.6318 78.336 12.0718C78.336 11.5838 78.468 11.1438 78.732 10.7518C78.996 10.3518 79.392 10.0358 79.92 9.80384C80.456 9.57184 81.108 9.45584 81.876 9.45584C82.412 9.45584 82.936 9.51984 83.448 9.64784C83.96 9.77584 84.408 9.95984 84.792 10.1998L84.192 11.6758C83.416 11.2358 82.64 11.0158 81.864 11.0158C81.32 11.0158 80.916 11.1038 80.652 11.2798C80.396 11.4558 80.268 11.6878 80.268 11.9758C80.268 12.2638 80.416 12.4798 80.712 12.6238C81.016 12.7598 81.476 12.8958 82.092 13.0318C82.732 13.1838 83.256 13.3358 83.664 13.4878C84.072 13.6398 84.42 13.8798 84.708 14.2078C85.004 14.5358 85.152 14.9798 85.152 15.5398C85.152 16.0198 85.016 16.4598 84.744 16.8598C84.48 17.2518 84.08 17.5638 83.544 17.7958C83.008 18.0278 82.356 18.1438 81.588 18.1438ZM92.6726 14.7958C92.6726 14.8198 92.6606 14.9878 92.6366 15.2998H87.7526C87.8406 15.6998 88.0486 16.0158 88.3766 16.2478C88.7046 16.4798 89.1126 16.5958 89.6006 16.5958C89.9366 16.5958 90.2326 16.5478 90.4886 16.4518C90.7526 16.3478 90.9966 16.1878 91.2206 15.9718L92.2166 17.0518C91.6086 17.7478 90.7206 18.0958 89.5526 18.0958C88.8246 18.0958 88.1806 17.9558 87.6206 17.6758C87.0606 17.3878 86.6286 16.9918 86.3246 16.4878C86.0206 15.9838 85.8686 15.4118 85.8686 14.7718C85.8686 14.1398 86.0166 13.5718 86.3126 13.0678C86.6166 12.5558 87.0286 12.1598 87.5486 11.8798C88.0766 11.5918 88.6646 11.4478 89.3126 11.4478C89.9446 11.4478 90.5166 11.5838 91.0286 11.8558C91.5406 12.1278 91.9406 12.5198 92.2286 13.0318C92.5246 13.5358 92.6726 14.1238 92.6726 14.7958ZM89.3246 12.8638C88.9006 12.8638 88.5446 12.9838 88.2566 13.2238C87.9686 13.4638 87.7926 13.7918 87.7286 14.2078H90.9086C90.8446 13.7998 90.6686 13.4758 90.3806 13.2358C90.0926 12.9878 89.7406 12.8638 89.3246 12.8638ZM96.3466 11.4478C97.3466 11.4478 98.1146 11.6878 98.6506 12.1678C99.1866 12.6398 99.4546 13.3558 99.4546 14.3158V17.9998H97.7026V17.1958C97.3506 17.7958 96.6946 18.0958 95.7346 18.0958C95.2386 18.0958 94.8066 18.0118 94.4386 17.8438C94.0786 17.6758 93.8026 17.4438 93.6106 17.1478C93.4186 16.8518 93.3226 16.5158 93.3226 16.1398C93.3226 15.5398 93.5466 15.0678 93.9946 14.7238C94.4506 14.3798 95.1506 14.2078 96.0946 14.2078H97.5826C97.5826 13.7998 97.4586 13.4878 97.2106 13.2718C96.9626 13.0478 96.5906 12.9358 96.0946 12.9358C95.7506 12.9358 95.4106 12.9918 95.0746 13.1038C94.7466 13.2078 94.4666 13.3518 94.2346 13.5358L93.5626 12.2278C93.9146 11.9798 94.3346 11.7878 94.8226 11.6518C95.3186 11.5158 95.8266 11.4478 96.3466 11.4478ZM96.2026 16.8358C96.5226 16.8358 96.8066 16.7638 97.0546 16.6198C97.3026 16.4678 97.4786 16.2478 97.5826 15.9598V15.2998H96.2986C95.5306 15.2998 95.1466 15.5518 95.1466 16.0558C95.1466 16.2958 95.2386 16.4878 95.4226 16.6318C95.6146 16.7678 95.8746 16.8358 96.2026 16.8358ZM102.937 12.3958C103.161 12.0838 103.461 11.8478 103.837 11.6878C104.221 11.5278 104.661 11.4478 105.157 11.4478V13.1758C104.949 13.1598 104.809 13.1518 104.737 13.1518C104.201 13.1518 103.781 13.3038 103.477 13.6078C103.173 13.9038 103.021 14.3518 103.021 14.9518V17.9998H101.149V11.5438H102.937V12.3958ZM109.331 18.0958C108.643 18.0958 108.023 17.9558 107.471 17.6758C106.927 17.3878 106.499 16.9918 106.187 16.4878C105.883 15.9838 105.731 15.4118 105.731 14.7718C105.731 14.1318 105.883 13.5598 106.187 13.0558C106.499 12.5518 106.927 12.1598 107.471 11.8798C108.023 11.5918 108.643 11.4478 109.331 11.4478C110.011 11.4478 110.603 11.5918 111.107 11.8798C111.619 12.1598 111.991 12.5638 112.223 13.0918L110.771 13.8718C110.435 13.2798 109.951 12.9838 109.319 12.9838C108.831 12.9838 108.427 13.1438 108.107 13.4638C107.787 13.7838 107.627 14.2198 107.627 14.7718C107.627 15.3238 107.787 15.7598 108.107 16.0798C108.427 16.3998 108.831 16.5598 109.319 16.5598C109.959 16.5598 110.443 16.2638 110.771 15.6718L112.223 16.4638C111.991 16.9758 111.619 17.3758 111.107 17.6638C110.603 17.9518 110.011 18.0958 109.331 18.0958ZM117.179 11.4478C117.979 11.4478 118.623 11.6878 119.111 12.1678C119.607 12.6478 119.855 13.3598 119.855 14.3038V17.9998H117.983V14.5918C117.983 14.0798 117.871 13.6998 117.647 13.4518C117.423 13.1958 117.099 13.0678 116.675 13.0678C116.203 13.0678 115.827 13.2158 115.547 13.5118C115.267 13.7998 115.127 14.2318 115.127 14.8078V17.9998H113.255V9.09584H115.127V12.2158C115.375 11.9678 115.675 11.7798 116.027 11.6518C116.379 11.5158 116.763 11.4478 117.179 11.4478Z" fill="#010101"/>
</svg>
